<?xml version="1.0" standalone="no"?>
<!DOCTYPE svg PUBLIC "-//W3C//DTD SVG 20010904//EN"
 "http://www.w3.org/TR/2001/REC-SVG-20010904/DTD/svg10.dtd">
<svg version="1.0" xmlns="http://www.w3.org/2000/svg"
 width="180.000000pt" height="180.000000pt" viewBox="0 0 180.000000 180.000000"
 preserveAspectRatio="xMidYMid meet">
<metadata>
Created by potrace 1.14, written by Peter Selinger 2001-2017
</metadata>
<g transform="translate(0.000000,180.000000) scale(0.100000,-0.100000)"
fill="#000000" stroke="none">
<path d="M809 1796 c-2 -2 -24 -6 -49 -9 -25 -2 -82 -16 -127 -31 -214 -67
-403 -224 -518 -430 -32 -58 -70 -161 -84 -227 -6 -30 -14 -65 -17 -79 -11
-53 -5 -209 11 -285 47 -231 158 -410 339 -546 121 -92 221 -137 391 -176 45
-10 238 -9 302 2 102 18 233 67 318 118 36 22 154 117 185 150 94 98 185 265
220 402 26 103 23 353 -5 455 -27 103 -99 244 -160 318 -182 218 -407 330
-686 338 -63 3 -117 2 -120 0z m28 -60 c-19 -18 -39 -42 -45 -52 -6 -10 -13
-16 -17 -13 -10 10 -19 113 -9 107 5 -3 29 -3 54 1 25 4 47 3 48 -1 2 -5 -12
-23 -31 -42z m198 35 c3 -1 10 -1 16 -1 8 0 9 -12 4 -37 -4 -21 -8 -44 -8 -51
0 -18 -6 -14 -60 45 -40 42 -45 52 -30 55 10 2 30 1 46 -3 15 -4 30 -8 32 -8z
m-294 -8 c0 -5 2 -27 5 -50 3 -24 3 -43 0 -43 -8 0 -127 63 -124 65 6 6 94 34
106 35 6 0 12 -3 13 -7z m157 -98 c-2 -2 -26 -5 -55 -7 -61 -5 -60 -3 7 68
l45 48 3 -53 c2 -29 2 -54 0 -56z m122 -4 c0 -10 -100 0 -101 10 -2 14 -1 77
0 92 2 11 101 -90 101 -102z m178 74 c-2 -1 -34 -18 -71 -38 l-68 -35 5 34
c12 75 12 75 82 56 30 -8 53 -16 52 -17z m-661 -90 c-17 -41 -34 -72 -37 -67
-4 4 -17 24 -29 44 l-22 37 58 30 c32 17 59 30 59 31 1 0 -12 -34 -29 -75z
m657 22 c-9 -26 -20 -47 -25 -47 -16 0 -89 25 -89 30 0 7 122 71 127 67 1 -2
-4 -25 -13 -50z m160 -7 c5 -6 -2 -27 -19 -52 l-28 -42 -14 39 c-7 22 -17 49
-22 60 -24 52 -22 54 27 28 26 -14 51 -29 56 -33z m-669 23 c30 -16 55 -30 55
-33 0 -10 -93 -31 -101 -23 -4 4 -14 25 -23 46 -19 47 -8 48 69 10z m600 -101
l7 -23 -51 25 c-55 28 -53 19 -20 104 l11 27 23 -55 c12 -30 26 -65 30 -78z
m-680 82 c22 -52 20 -57 -34 -80 l-48 -22 19 52 c11 28 22 59 25 69 8 27 21
20 38 -19z m288 -23 c4 -1 7 -21 7 -46 0 -25 -3 -45 -7 -45 -5 0 -24 16 -43
35 -19 19 -38 35 -42 35 -4 0 -8 4 -8 9 0 14 36 18 93 12z m115 0 c22 -1 24
-4 19 -46 -2 -25 -6 -48 -9 -50 -6 -6 -78 79 -78 93 0 5 10 8 23 6 12 -1 33
-3 45 -3z m447 -45 l30 -26 -32 0 c-18 0 -34 0 -35 0 -2 -1 -20 -5 -41 -9 -46
-11 -55 0 -28 38 12 16 21 34 21 40 0 15 44 -8 85 -43z m-990 8 c15 -19 25
-38 22 -41 -3 -3 -39 -2 -79 2 l-73 8 39 33 c22 19 45 34 51 34 7 0 25 -16 40
-36z m300 14 c2 -7 6 -30 9 -50 l6 -37 -62 37 -62 37 40 12 c52 15 64 15 69 1z
m357 -4 l47 -15 -17 -45 c-9 -24 -19 -44 -22 -44 -4 0 -45 78 -58 112 -5 11
-3 11 50 -8z m-157 -41 l37 -48 -37 -3 c-20 -2 -40 -1 -43 2 -8 9 -9 96 -1 96
5 0 24 -21 44 -47z m-107 -16 l34 -35 -45 -3 c-43 -4 -46 -3 -51 25 -11 53 -8
68 12 57 9 -5 32 -25 50 -44z m233 -11 c24 -45 17 -57 -29 -44 -33 9 -33 10
-27 51 12 71 15 71 56 -7z m-439 -9 c16 -44 16 -46 0 -38 -9 4 -36 16 -59 26
-24 10 -43 21 -43 25 0 10 63 40 75 36 5 -1 18 -23 27 -49z m80 5 c40 -26 41
-42 4 -42 -12 0 -27 -5 -33 -11 -7 -7 -15 2 -27 31 -9 22 -16 45 -16 50 0 12
26 2 72 -28z m488 -95 c0 -4 -18 2 -40 13 -37 19 -39 22 -30 48 6 15 16 37 22
50 11 22 13 19 30 -40 10 -35 18 -66 18 -71z m38 113 l33 -20 -22 -40 c-13
-22 -26 -40 -30 -40 -3 0 -12 20 -18 44 -6 24 -13 51 -17 60 -8 22 14 20 54
-4z m-829 -11 c23 -2 44 -6 46 -10 3 -3 -13 -20 -34 -37 l-38 -31 -38 39 c-37
37 -37 38 -14 42 13 2 27 3 30 2 3 -2 25 -4 48 -5z m1024 -40 c-39 -42 -33
-42 -95 7 l-28 22 63 9 c95 13 103 8 60 -38z m-1158 -49 c0 -44 -2 -80 -3 -80
-7 0 -82 55 -82 61 0 4 80 99 84 99 1 0 1 -36 1 -80z m63 35 l32 -34 -34 -36
c-18 -19 -36 -35 -40 -35 -3 0 -6 32 -6 70 0 39 4 70 8 70 5 0 23 -16 40 -35z
m189 -29 c13 -25 13 -28 0 -23 -19 7 -110 22 -119 19 -17 -4 -6 8 34 37 47 35
49 34 85 -33z m54 38 l59 -27 -31 -19 c-17 -10 -35 -18 -40 -16 -12 4 -63 88
-53 88 3 0 33 -12 65 -26z m900 19 c9 -54 -1 -152 -13 -133 -2 3 -16 19 -32
37 l-29 32 29 35 c29 34 43 43 45 29z m65 -30 c18 -21 34 -43 34 -50 0 -6 -13
-20 -30 -30 -16 -9 -30 -21 -30 -25 0 -13 12 -9 46 17 l32 25 31 -49 c17 -26
31 -50 31 -53 0 -10 -130 31 -145 46 -10 10 -15 36 -15 85 0 39 3 71 6 71 3 0
21 -17 40 -37z m-205 0 c21 -16 38 -30 38 -33 0 -3 -15 -23 -34 -44 l-35 -39
0 41 c0 50 0 51 -11 80 -11 29 -5 28 42 -5z m-316 -3 c208 -44 393 -224 450
-440 24 -89 14 -267 -19 -355 -91 -240 -315 -397 -566 -396 -110 0 -158 11
-282 64 -16 7 -28 15 -28 19 0 5 -7 8 -16 8 -8 0 -52 37 -98 82 -63 64 -91
101 -118 158 -53 111 -62 152 -61 280 1 176 54 302 179 426 60 60 189 135 259
151 100 22 205 24 300 3z m267 -54 c0 -25 -1 -48 -4 -51 -2 -3 -18 5 -35 18
l-31 23 26 43 c29 50 41 41 44 -33z m-805 -1 c24 -4 45 -10 48 -15 3 -5 -10
-18 -30 -30 l-34 -21 -30 33 c-35 38 -38 48 -13 44 9 -2 36 -7 59 -11z m-67
-30 l34 -35 -74 0 -74 0 34 35 c19 19 37 35 40 35 3 0 21 -16 40 -35z m-173
-31 c12 -11 -3 -17 -92 -40 -5 -1 -19 -6 -29 -10 -18 -7 -18 -4 4 32 13 21 28
47 34 56 9 15 12 15 40 -5 17 -12 36 -27 43 -33z m1136 -6 c-2 -29 -5 -59 -5
-66 -1 -8 -15 1 -34 20 -31 32 -31 34 -15 53 10 11 24 27 32 36 22 26 27 14
22 -43z m64 26 l27 -37 -34 -28 c-39 -33 -54 -37 -46 -11 3 9 6 38 7 65 1 26
6 47 10 47 4 0 20 -16 36 -36z m-1014 -43 c16 -1 16 -4 -5 -31 -12 -16 -26
-30 -31 -30 -4 0 -24 12 -44 27 -35 27 -36 28 -12 33 13 4 35 5 49 4 14 -1 33
-2 43 -3z m-173 -16 c0 -3 -12 -23 -26 -45 -27 -41 -33 -42 -88 -9 l-29 18 24
10 c64 26 119 38 119 26z m73 -22 l39 -27 -48 -13 c-27 -7 -59 -13 -72 -13
l-22 0 26 40 c15 22 29 40 32 40 3 0 24 -12 45 -27z m1275 7 c23 -7 42 -17 42
-22 0 -8 -82 -50 -86 -45 -1 1 -13 21 -28 45 l-27 43 28 -4 c15 -3 47 -10 71
-17z m-134 -11 c-3 -5 -8 -21 -10 -36 -3 -14 -11 -37 -18 -51 l-13 -24 -21 36
-21 35 36 30 c33 27 62 33 47 10z m55 -29 l21 -41 -42 -19 c-23 -10 -43 -18
-44 -17 -6 6 31 125 37 121 4 -2 16 -22 28 -44z m-1376 -21 c23 -12 43 -23 45
-24 1 -1 -6 -24 -16 -49 -14 -37 -21 -44 -29 -34 -13 16 -55 128 -47 128 2 0
24 -10 47 -21z m1511 -3 c-14 -77 -64 -144 -64 -86 0 10 -4 22 -10 25 -22 14
-9 44 28 63 50 26 51 26 46 -2z m-1529 -115 c5 -18 3 -18 -37 -9 -24 6 -46 14
-51 18 -6 5 3 40 29 110 5 13 38 -54 59 -119z m1585 61 l17 -49 -48 -15 c-27
-8 -51 -13 -54 -10 -2 2 4 21 14 41 10 20 22 51 26 69 9 42 21 32 45 -36z
m-1360 28 c-29 -41 -30 -41 -80 -14 -25 12 -40 24 -35 24 28 4 59 11 64 15 2
3 20 5 38 5 l34 0 -21 -30z m-88 -31 l41 -21 -49 -17 c-27 -10 -58 -22 -68
-26 -16 -7 -18 -5 -12 11 5 10 13 31 18 47 12 33 17 33 70 6z m1246 -45 c-13
-26 -28 -49 -34 -51 -5 -2 -16 13 -23 34 -8 20 -10 38 -5 40 5 2 25 11 44 21
19 9 36 14 38 10 2 -4 -7 -28 -20 -54z m75 -15 c6 -23 3 -27 -32 -37 -58 -18
-65 -15 -42 17 12 16 21 31 21 34 0 3 5 18 11 34 l11 28 12 -25 c7 -14 16 -37
19 -51z m-1273 18 c0 -4 -31 -69 -35 -75 -1 -1 -17 3 -36 9 -19 6 -40 13 -48
15 -11 4 -7 9 11 18 48 25 108 43 108 33z m-211 -41 c17 -3 28 -26 13 -26 -5
0 -31 -18 -58 -40 -26 -22 -50 -38 -52 -35 -2 2 2 29 8 60 l12 57 31 -7 c18
-3 39 -8 46 -9z m1635 -4 c10 -32 17 -92 11 -92 -3 0 -31 19 -61 42 l-55 41
27 12 c44 17 72 17 78 -3z m-1499 -37 c17 -7 25 -14 19 -14 -6 -1 -31 -14 -55
-31 -54 -37 -61 -37 -55 -2 2 15 5 35 5 45 1 21 42 22 86 2z m1339 3 c-4 -7
-23 -33 -43 -57 l-35 -45 -8 35 c-10 46 -5 57 34 68 47 13 60 13 52 -1z
m-1445 -35 c-10 -47 -9 -41 -9 -52 0 -7 -40 -8 -98 -2 -16 1 -10 8 53 59 53
43 65 42 54 -5z m1477 1 c3 -16 7 -37 10 -46 3 -10 2 -18 -3 -19 -77 -8 -94
-8 -91 -2 8 18 72 102 75 99 2 -2 6 -16 9 -32z m83 -5 c29 -23 50 -43 47 -46
-2 -2 -26 -6 -54 -8 l-50 -3 -6 37 c-12 75 -8 77 63 20z m-1425 -33 l-6 -37
-55 3 -54 3 28 22 c30 25 86 54 91 48 2 -1 0 -19 -4 -39z m-149 -99 l1 -56
-31 32 c-16 18 -41 45 -55 60 l-25 29 55 -4 55 -4 0 -57z m1607 36 c-11 -15
-34 -41 -51 -57 l-31 -30 -1 25 c-1 30 2 72 6 80 2 3 25 6 50 8 l47 2 -20 -28z
m-1500 10 c15 -4 13 -9 -15 -31 -17 -15 -40 -35 -49 -46 -14 -15 -19 -16 -23
-5 -3 11 -1 76 4 86 2 4 67 1 83 -4z m1366 -12 c-15 -21 -73 -71 -82 -71 -12
0 -6 78 7 83 6 2 29 5 50 5 34 1 36 -1 25 -17z m-1499 -95 c1 -5 -20 -11 -47
-13 l-48 -3 2 53 c1 28 2 56 3 62 1 11 87 -84 90 -99z m1671 45 l0 -60 -52 4
c-29 2 -55 4 -57 4 -2 1 11 16 30 35 19 18 42 43 51 55 10 11 20 21 23 21 3 0
5 -27 5 -59z m-138 -28 c-4 -19 -9 -22 -41 -18 -20 2 -45 4 -55 4 -17 1 -15 4
10 24 16 12 41 33 54 47 l25 25 5 -30 c3 -17 4 -40 2 -52z m-1366 27 c1 -36
-2 -40 -25 -41 -14 -1 -39 -3 -56 -5 l-30 -3 47 44 c26 25 51 45 55 45 5 0 9
-18 9 -40z m1312 -59 c32 -1 27 -13 -20 -44 -55 -35 -70 -35 -62 1 10 47 12
49 36 46 12 -1 33 -3 46 -3z m-1338 -6 c0 -4 -62 -89 -75 -103 -2 -2 -7 17
-11 43 -5 35 -3 49 7 56 15 9 79 13 79 4z m-130 -9 c0 -3 -18 -33 -39 -67 -42
-66 -43 -65 -56 13 -4 20 -5 41 -2 45 6 10 97 18 97 9z m172 -40 c4 -32 2 -34
-44 -49 -26 -8 -48 -12 -48 -8 0 15 71 101 80 96 4 -3 10 -20 12 -39z m1462
38 c19 -7 21 -58 6 -100 l-11 -27 -32 54 c-18 30 -36 60 -40 67 -6 9 1 12 27
12 19 0 41 -3 50 -6z m-124 -50 c-12 -52 -21 -58 -69 -43 -39 12 -55 29 -28
29 6 1 30 13 52 29 22 15 43 26 46 25 4 -2 3 -20 -1 -40z m79 -37 c11 -21 21
-42 21 -46 0 -5 -23 -2 -50 7 -39 12 -49 20 -44 32 3 8 8 32 11 52 l6 37 17
-22 c10 -12 27 -39 39 -60z m-1562 61 c1 -7 4 -30 8 -50 6 -36 5 -37 -32 -47
-43 -12 -63 -14 -63 -5 0 11 72 114 79 114 4 0 8 -6 8 -12z m106 -133 c-25
-49 -31 -55 -42 -41 -7 8 -14 30 -14 47 -2 29 2 33 38 44 22 6 41 11 43 9 2
-1 -10 -28 -25 -59z m1293 54 c26 -7 42 -15 36 -21 -7 -7 -109 -48 -119 -48
-1 0 1 10 6 23 5 12 12 30 15 40 6 20 5 20 62 6z m-1223 -41 l15 -37 -45 -21
c-25 -12 -47 -20 -48 -18 -4 4 34 89 48 106 12 15 11 16 30 -30z m1402 -18
c-6 -10 -109 -60 -123 -60 -8 0 -7 10 2 33 7 17 16 40 19 49 5 15 9 15 56 1
27 -9 48 -20 46 -23z m-1539 -15 c7 -22 14 -43 14 -48 0 -4 -33 9 -72 30 l-73
37 40 12 c60 19 75 14 91 -31z m1411 8 c-30 -68 -29 -68 -83 -40 l-48 24 33 8
c18 4 44 13 59 21 43 22 53 19 39 -13z m-1456 -51 l56 -28 -38 -22 c-21 -12
-43 -22 -48 -22 -12 0 -35 43 -45 82 -7 31 -8 31 75 -10z m1578 -14 c-11 -29
-23 -55 -25 -57 -2 -3 -25 5 -50 18 -26 12 -44 24 -41 27 7 7 120 62 129 63 4
1 -2 -23 -13 -51z m-1405 -18 c-9 -25 -16 -53 -17 -62 -1 -10 -4 -18 -8 -18
-9 0 -49 64 -49 78 0 8 81 54 87 48 1 -1 -5 -22 -13 -46z m1186 33 c40 -18 52
-32 28 -34 -7 0 -22 -2 -33 -5 -47 -9 -86 -12 -83 -6 2 4 10 19 17 35 17 32
19 32 71 10z m-1110 -53 c0 -12 -69 -64 -76 -57 -3 2 2 31 12 63 l17 58 23
-28 c13 -15 24 -31 24 -36z m-183 3 c-3 -5 -8 -26 -12 -48 -4 -22 -8 -47 -10
-55 -2 -8 -4 -24 -4 -35 -1 -14 -11 -4 -36 34 -19 30 -32 58 -29 62 3 5 24 18
47 29 48 22 50 23 44 13z m1343 0 c0 -5 -13 -25 -29 -45 l-28 -37 -31 22 c-17
12 -32 27 -32 33 0 6 24 15 53 21 28 5 55 11 60 11 4 1 7 -1 7 -5z m88 -18
c34 -15 41 -22 36 -38 -11 -34 -46 -87 -54 -82 -4 3 -11 29 -15 58 -4 28 -12
60 -17 71 -6 10 -6 16 -1 14 4 -2 27 -13 51 -23z m-1382 -31 l27 -46 -24 -19
c-58 -46 -62 -46 -56 8 3 26 8 57 11 68 2 11 5 23 5 28 2 15 11 6 37 -39z
m1333 -32 c18 -86 15 -88 -42 -41 l-37 30 27 40 c14 22 29 36 34 32 4 -4 12
-32 18 -61z m-163 31 c18 -16 34 -31 34 -34 0 -8 -98 -11 -110 -4 -8 5 26 62
38 64 2 1 19 -11 38 -26z m-1030 8 c-3 -5 -8 -32 -10 -61 -3 -29 -8 -55 -11
-58 -4 -4 -20 8 -37 27 l-31 35 29 23 c16 13 34 28 39 33 13 12 28 13 21 1z
m47 -85 c-43 -52 -50 -51 -43 8 4 28 8 52 9 54 0 1 1 10 1 20 0 13 7 9 31 -16
l31 -33 -29 -33z m1027 14 c0 -3 -14 -21 -31 -39 l-30 -34 -34 34 c-18 19 -29
36 -25 39 11 7 120 7 120 0z m-1141 -32 c35 -39 27 -47 -42 -42 -77 7 -85 16
-40 47 21 14 41 26 46 26 4 1 20 -14 36 -31z m231 -24 c0 -9 -52 -86 -55 -82
-3 2 -7 35 -11 73 l-7 68 37 -28 c20 -15 36 -29 36 -31z m782 29 c15 -15 28
-31 28 -35 0 -12 -101 -1 -113 11 -7 7 -2 17 14 30 31 27 38 26 71 -6z m204 0
c38 -31 42 -41 17 -42 -10 -1 -40 -2 -68 -4 -27 -2 -53 -2 -57 0 -8 4 52 73
64 73 5 0 25 -12 44 -27z m-1069 -29 c1 -19 4 -48 7 -64 l4 -30 -31 22 c-57
40 -57 41 -23 80 17 20 33 34 36 31 2 -2 5 -20 7 -39z m780 -68 c15 -28 14
-29 -9 -23 -41 11 -98 37 -98 45 0 5 15 16 33 24 36 18 42 14 74 -46z m-624
34 c31 -15 33 -32 8 -78 l-17 -33 -12 26 c-16 35 -27 109 -16 104 5 -3 21 -11
37 -19z m744 -4 c4 -4 -70 -56 -79 -56 -6 0 -48 63 -48 72 0 5 121 -10 127
-16z m-1045 2 l39 1 -28 -34 c-47 -56 -54 -54 -123 29 -14 18 -12 18 29 11 25
-4 62 -7 83 -7z m245 6 c-3 -3 1 -28 9 -56 9 -27 14 -53 12 -58 -2 -5 -22 0
-44 12 l-42 21 26 43 c15 24 31 44 36 44 5 0 7 -3 3 -6z m1003 -1 c-1 -5 -19
-26 -41 -48 l-40 -40 -37 40 -37 40 60 6 c33 3 68 6 78 7 9 1 17 -1 17 -5z
m-1192 -68 c1 -20 4 -40 7 -46 11 -16 16 -59 8 -59 -5 0 -27 17 -51 38 l-42
37 32 37 c18 20 35 35 39 33 3 -2 6 -20 7 -40z m65 11 c33 -24 34 -37 3 -82
l-24 -36 -13 39 c-7 21 -14 55 -15 75 -2 40 -1 40 49 4z m670 7 c8 -16 18 -38
21 -50 6 -19 4 -22 -11 -16 -10 3 -38 20 -63 37 l-45 30 40 12 c22 7 41 13 42
13 1 1 9 -11 16 -26z m273 8 c-3 -4 -8 -30 -12 -57 -10 -76 -17 -81 -47 -35
-15 22 -27 44 -27 48 1 12 74 62 83 56 4 -2 5 -8 3 -12z m84 -58 c-1 -8 -82
-73 -92 -73 -2 0 3 34 11 75 l16 76 32 -35 c18 -19 33 -38 33 -43z m-722 54
c13 0 14 -13 4 -71 l-7 -40 -17 26 c-9 13 -24 42 -32 63 l-16 37 28 -7 c15 -4
33 -8 40 -8z m-49 -64 l31 -62 -46 14 c-25 7 -48 16 -51 19 -3 3 2 26 12 51 9
26 18 45 20 43 1 -2 17 -31 34 -65z m514 42 c20 -8 37 -17 37 -20 0 -8 -58
-35 -74 -35 -13 0 -46 56 -46 77 0 7 39 -3 83 -22z m-350 6 c14 -1 17 -11 17
-57 l0 -56 -35 43 c-20 23 -40 50 -45 60 -9 15 -6 17 18 14 15 -2 35 -4 45 -4z
m139 -41 c4 -24 5 -46 3 -49 -6 -5 -95 79 -95 89 0 3 19 5 42 5 42 0 43 -1 50
-45z m-182 -23 c22 -30 40 -56 40 -59 0 -3 -17 -2 -37 3 -21 4 -39 8 -40 9 -2
0 -7 0 -13 0 -6 0 -7 15 -4 38 4 20 7 43 7 50 1 19 3 16 47 -41z m255 18 c17
-12 37 -24 45 -27 11 -4 7 -9 -13 -17 -69 -27 -72 -26 -84 23 -14 64 -10 66
52 21z m-124 -23 l52 -49 -51 -2 c-36 -1 -52 3 -53 11 -3 32 -5 88 -2 88 1 0
26 -22 54 -48z m-371 -14 c0 -8 -94 -38 -123 -38 -21 0 -21 0 11 52 l23 37 45
-21 c24 -12 44 -25 44 -30z m740 -5 l20 -35 -32 5 c-44 6 -118 29 -118 36 0 3
20 16 43 27 47 24 55 22 87 -33z m-739 -58 c-8 -24 -20 -46 -26 -48 -5 -2 -35
9 -65 24 -30 16 -50 29 -45 30 23 1 54 9 91 22 61 23 63 22 45 -28z m120 29
c39 -7 39 -7 33 -43 -14 -74 -18 -77 -45 -34 -69 104 -66 98 -46 90 10 -4 36
-10 58 -13z m428 -6 c-22 -43 -64 -108 -70 -108 -3 0 -6 6 -6 13 -1 6 -4 30
-8 53 -6 40 -6 40 32 51 61 17 65 16 52 -9z m114 5 c34 -9 66 -20 71 -24 7 -6
-81 -59 -98 -59 -2 0 -10 17 -17 38 -6 20 -16 43 -22 50 -12 16 -9 15 66 -5z
m-584 -59 c22 -33 37 -61 35 -63 -8 -8 -114 33 -114 45 0 16 32 85 37 80 2 -2
21 -30 42 -62z m517 31 c24 -57 19 -66 -41 -81 -5 -2 -21 -6 -34 -10 l-24 -7
27 44 c15 24 32 54 38 67 15 29 16 28 34 -13z m-318 1 c2 -3 -91 -76 -115 -90
-12 -6 -10 10 9 72 10 33 11 33 56 27 26 -3 48 -8 50 -9z m167 -14 c11 -41 14
-72 7 -72 -14 0 -122 82 -122 92 0 2 24 4 54 5 51 3 54 1 61 -25z m-145 -48
l0 -55 -60 3 c-33 1 -60 6 -60 9 0 4 10 13 23 22 12 8 38 29 57 46 19 17 36
31 38 31 1 0 2 -25 2 -56z m99 -10 c46 -35 41 -42 -34 -40 l-50 1 2 45 c1 25
2 47 2 49 1 4 9 -2 80 -55z"/>
</g>
</svg>
